<svg width="12" height="12" viewBox="0 0 12 12" fill="none" xmlns="http://www.w3.org/2000/svg">
<path d="M4.42794 10.6677C3.69575 10.6677 3.00018 10.3799 2.48406 9.86378C1.95626 9.34769 1.66797 8.66378 1.66797 7.94378C1.66797 7.25988 1.93187 6.61154 2.42406 6.13154L6.68407 1.93154C7.06797 1.54764 7.59626 1.33154 8.14795 1.33154C8.73575 1.33154 9.31185 1.55935 9.70795 1.94374C10.104 2.33983 10.3318 2.90374 10.3318 3.49149C10.3318 4.04369 10.1158 4.5593 9.71966 4.94373L6.09626 8.53198C5.80845 8.81978 5.42406 8.97588 5.01626 8.97588C4.59626 8.97588 4.18845 8.80807 3.88845 8.50807C3.58845 8.20807 3.40845 7.80026 3.40845 7.38026C3.40845 6.97246 3.57626 6.57636 3.86454 6.30026L6.74454 3.45638L7.33235 4.05638L4.45235 6.90026C4.32016 7.02026 4.24845 7.20026 4.24845 7.38026C4.24845 7.57245 4.33236 7.76417 4.47626 7.90807C4.62016 8.05197 4.81235 8.12417 5.01626 8.12417C5.20845 8.12417 5.37626 8.05198 5.50845 7.92026L9.13233 4.3325C9.36014 4.1047 9.49233 3.8047 9.49233 3.48031C9.49233 3.10812 9.34843 2.76031 9.10843 2.52031C8.86843 2.28031 8.52062 2.14812 8.13623 2.14812C7.81233 2.14812 7.48843 2.28031 7.26014 2.49593L3.01238 6.71981C2.68847 7.04371 2.50847 7.4759 2.50847 7.93205C2.50847 8.42424 2.71238 8.90424 3.07238 9.26429C3.43238 9.62434 3.91238 9.82819 4.4285 9.82819C4.9085 9.82819 5.34069 9.64819 5.66462 9.32429L9.18074 5.85653L9.76855 6.45653L9.49245 6.73262L6.25245 9.92486C5.77245 10.4039 5.12417 10.6678 4.42809 10.6678L4.42794 10.6677Z" fill="#757575"/>
</svg>
