<svg width="14" height="14" viewBox="0 0 14 14" fill="none" xmlns="http://www.w3.org/2000/svg">
<path fill-rule="evenodd" clip-rule="evenodd" d="M8.41918 1.22453C8.62153 1.32132 8.75005 1.52585 8.75005 1.75007V12.2501C8.75005 12.4743 8.62153 12.6788 8.41918 12.7756C8.21739 12.873 7.97732 12.8456 7.80232 12.7056L5.20518 10.628C5.10182 10.5449 4.97331 10.5001 4.84095 10.5001H2.91651C1.95019 10.5001 1.16651 9.71637 1.16651 8.75005V5.25005C1.16651 4.28373 1.95019 3.50005 2.91651 3.50005H4.84095C4.9733 3.50005 5.10181 3.45521 5.20518 3.37208L7.80232 1.29448C7.97732 1.15448 8.21739 1.12718 8.41918 1.22453ZM7.58355 2.96361L5.93421 4.28322C5.62358 4.53149 5.23803 4.66658 4.84101 4.66658H2.91657C2.59446 4.66658 2.33359 4.92799 2.33359 5.2501V8.7501C2.33359 9.07221 2.59446 9.33362 2.91657 9.33362H4.84101C5.23803 9.33362 5.62358 9.4687 5.93421 9.71698L7.58355 11.0366V2.96361Z" fill="#B3B3B3"/>
<path d="M9.91648 6.9999C9.91648 6.43388 9.73163 5.94554 9.46475 5.61904C9.26132 5.36911 9.29796 5.00217 9.54788 4.79818C9.79725 4.5942 10.1647 4.63138 10.3682 4.88076C10.8199 5.43419 11.0835 6.18889 11.0835 6.99994C11.0835 7.81099 10.8199 8.5657 10.3682 9.11912C10.1648 9.36849 9.79726 9.40568 9.54788 9.2017C9.29795 8.99772 9.26131 8.63076 9.46475 8.38083C9.73162 8.05435 9.91648 7.56592 9.91648 6.9999Z" fill="#B3B3B3"/>
<path d="M10.6317 3.8692C11.2579 4.63592 11.6664 5.74492 11.6664 7.00002C11.6664 8.25512 11.2579 9.3642 10.6317 10.1308C10.4278 10.3808 10.4649 10.7477 10.7143 10.9517C10.9637 11.1557 11.3312 11.1185 11.5352 10.8691C12.3462 9.87599 12.8335 8.50004 12.8335 6.99994C12.8335 5.49984 12.3462 4.12392 11.5352 3.13076C11.3312 2.88139 10.9637 2.84419 10.7143 3.04818C10.4649 3.25216 10.4278 3.61912 10.6317 3.86904V3.8692Z" fill="#B3B3B3"/>
</svg>
