<svg width=".75rem" height=".75rem" viewBox="0 0 12 12" fill="none" xmlns="http://www.w3.org/2000/svg">
<path d="M2.49984 3.99968C3.0525 3.99968 3.50015 3.55202 3.50015 2.99984C3.50015 2.44766 3.05249 2 2.49984 2C1.94765 2 1.5 2.44766 1.5 2.99984C1.5 3.55202 1.94766 3.99968 2.49984 3.99968Z" fill="#757575" fill-opacity="0.5"/>
<path d="M4.49992 2.5C4.22382 2.5 3.99976 2.72406 3.99976 3.00016C3.99976 3.27626 4.22382 3.50032 4.49992 3.50032H9.99976C10.2759 3.50032 10.4999 3.27626 10.4999 3.00016C10.4999 2.72406 10.2759 2.5 9.99976 2.5H4.49992Z" fill="#757575" fill-opacity="0.5"/>
<path d="M4.49992 8.5C4.22382 8.5 3.99976 8.72406 3.99976 9.00016C3.99976 9.27626 4.22382 9.50032 4.49992 9.50032H9.99976C10.2759 9.50032 10.4999 9.27626 10.4999 9.00016C10.4999 8.72406 10.2759 8.5 9.99976 8.5H4.49992Z" fill="#757575" fill-opacity="0.5"/>
<path d="M3.99976 6.00016C3.99976 5.72406 4.22382 5.5 4.49992 5.5H9.99976C10.2759 5.5 10.4999 5.72406 10.4999 6.00016C10.4999 6.27626 10.2759 6.50032 9.99976 6.50032H4.49992C4.22382 6.50032 3.99976 6.27626 3.99976 6.00016Z" fill="#757575" fill-opacity="0.5"/>
<path d="M3.50015 5.99984C3.50015 6.55203 3.05249 6.99968 2.49984 6.99968C1.94765 6.99968 1.5 6.55202 1.5 5.99984C1.5 5.44766 1.94766 5 2.49984 5C3.0525 5 3.50015 5.44766 3.50015 5.99984Z" fill="#757575" fill-opacity="0.5"/>
<path d="M2.49984 9.99968C3.0525 9.99968 3.50015 9.55202 3.50015 8.99984C3.50015 8.44766 3.05249 8 2.49984 8C1.94765 8 1.5 8.44766 1.5 8.99984C1.5 9.55202 1.94766 9.99968 2.49984 9.99968Z" fill="#757575" fill-opacity="0.5"/>
</svg>
