<svg width=".75rem" height=".75rem" viewBox="0 0 12 12" fill="none" xmlns="http://www.w3.org/2000/svg">
<path d="M7.69694 2.17023L7.69688 2.1702L7.6957 2.17318C7.62657 2.34669 7.69265 2.54953 7.86334 2.62523L7.89729 2.54869L7.86254 2.62487C9.40313 3.32759 10.3905 4.88237 10.3905 6.57257C10.3905 6.71107 10.3904 6.84464 10.3769 6.97753C10.3583 7.16044 10.5012 7.34014 10.6859 7.35891L10.6858 7.35933H10.6944H10.7218C10.9012 7.35933 11.049 7.2318 11.0668 7.04958L11.0668 7.04913C11.0808 6.89747 11.0946 6.74268 11.0946 6.57311L11.0946 6.57254C11.0815 4.62485 9.93266 2.83146 8.15335 2.00441L8.12175 1.98972L8.11704 1.99146C7.95128 1.94188 7.76803 2.00992 7.69694 2.17023Z" fill="#B3B3B3" stroke="#B3B3B3" stroke-width="0.167452"/>
<path d="M1.72427 6.57563C1.72427 4.88656 2.71042 3.34585 4.25078 2.62858C4.43283 2.55445 4.50568 2.33717 4.417 2.17126C4.34161 1.99055 4.12445 1.91895 3.95914 2.00855C2.1816 2.82184 1.03433 4.62684 1.03305 6.57293C1.02017 6.73969 1.01989 6.8974 1.04837 7.05637C1.0683 7.23624 1.21442 7.36239 1.39292 7.36239H1.42037V7.36282L1.42883 7.36197C1.61142 7.34342 1.7562 7.17984 1.73792 6.98137L1.73792 6.98137L1.73784 6.98059C1.72434 6.8477 1.72427 6.71413 1.72427 6.57563Z" fill="#B3B3B3" stroke="#B3B3B3" stroke-width="0.167452"/>
<path d="M3.52206 10.131L3.52205 10.131C4.26562 10.6581 5.13095 10.9284 6.03709 10.9284C6.94369 10.9284 7.82161 10.6581 8.55031 10.1323C8.71082 10.0079 8.92963 10.0428 9.04035 10.2051C9.16426 10.366 9.12847 10.5851 8.96504 10.6952C8.96476 10.6954 8.96448 10.6956 8.9642 10.6958L8.91762 10.6262C8.07676 11.2189 7.08466 11.536 6.0511 11.536C5.01754 11.536 4.02542 11.2189 3.18458 10.6262L3.52206 10.131ZM3.52206 10.131L3.52021 10.1298C3.35823 10.0213 3.16015 10.0606 3.03872 10.199L3.03025 10.2087L3.02506 10.2204C2.95762 10.3731 2.98684 10.5831 3.13447 10.6933L3.15675 10.7099H3.15815L3.52206 10.131Z" fill="#B3B3B3" stroke="#B3B3B3" stroke-width="0.167452"/>
<path d="M4.57448 1.90283C4.57448 2.72102 5.2321 3.37865 6.05029 3.37865C6.86849 3.37865 7.52611 2.72103 7.52611 1.90283C7.52611 1.08465 6.86849 0.427016 6.05029 0.427016C5.2321 0.427016 4.57448 1.08464 4.57448 1.90283ZM6.83476 1.90283C6.83476 2.33892 6.48628 2.6874 6.05019 2.6874C5.6141 2.6874 5.26562 2.33892 5.26562 1.90283C5.26562 1.46675 5.6141 1.11826 6.05019 1.11826C6.48628 1.11826 6.83476 1.46675 6.83476 1.90283Z" fill="#B3B3B3" stroke="#B3B3B3" stroke-width="0.167452"/>
<path d="M0.569604 8.54907L0.569604 8.54907C0.467268 8.92983 0.525852 9.32432 0.715384 9.65957C0.90585 9.99647 1.22751 10.2447 1.60738 10.3468L1.60736 10.3469L1.61099 10.3477C1.73977 10.3763 1.85626 10.3911 1.98763 10.3911C2.23707 10.3911 2.49988 10.3181 2.71927 10.1868C3.41961 9.7779 3.66847 8.8729 3.25878 8.17064C2.85002 7.46999 1.9448 7.22095 1.24241 7.63072L1.24231 7.63055L1.23756 7.63378C0.919329 7.84988 0.67177 8.16897 0.569604 8.54907ZM1.79004 9.68986L1.79006 9.68979L1.78662 9.68893C1.5895 9.63989 1.4156 9.50357 1.31597 9.33033C1.21634 9.1416 1.19171 8.92907 1.24152 8.72885L1.24303 8.72279C1.29342 8.52778 1.42916 8.35611 1.60111 8.25759C1.97432 8.04632 2.44751 8.17 2.67272 8.54408C2.88344 8.91724 2.7596 9.39003 2.38563 9.61505C2.2106 9.71504 1.99964 9.75154 1.79004 9.68986Z" fill="#B3B3B3" stroke="#B3B3B3" stroke-width="0.167452"/>
<path d="M8.81731 8.21506C8.42748 8.89332 8.66366 9.76651 9.33671 10.1834L9.33697 10.185L9.37219 10.2047C9.60326 10.3344 9.8514 10.4082 10.1022 10.4082C10.2319 10.4082 10.3631 10.3935 10.4809 10.3642L10.4809 10.3643L10.4824 10.3638C10.8623 10.2617 11.184 10.0135 11.3744 9.6766C11.564 9.34136 11.6226 8.94687 11.5202 8.5661C11.4182 8.18641 11.1701 7.86489 10.8335 7.67439C10.1312 7.26502 9.22626 7.51409 8.81758 8.21459L8.81758 8.21459L8.81731 8.21506ZM9.70263 9.61772C9.34319 9.39284 9.22042 8.90656 9.43026 8.54818C9.58014 8.29851 9.84207 8.16178 10.1022 8.16178C10.2374 8.16178 10.362 8.19835 10.4912 8.26279C10.6744 8.36102 10.7981 8.53277 10.8478 8.7324C10.8977 8.93307 10.8728 9.14598 10.7723 9.33434C10.6741 9.51817 10.5021 9.64219 10.3021 9.69194C10.1023 9.74165 9.89039 9.7172 9.70263 9.61772Z" fill="#B3B3B3" stroke="#B3B3B3" stroke-width="0.167452"/>
</svg>
