<svg width="10" height="11" viewBox="0 0 10 11" fill="none" xmlns="http://www.w3.org/2000/svg">
<path fill-rule="evenodd" clip-rule="evenodd" d="M2.77103 2.81149C2.57577 2.61622 2.25919 2.61622 2.06393 2.81149C1.86866 3.00675 1.86866 3.32333 2.06393 3.51859L4.29371 5.74837L2.06393 7.97815C1.86866 8.17342 1.86866 8.49 2.06393 8.68526C2.25919 8.88052 2.57577 8.88052 2.77103 8.68526L5.00081 6.45548L7.23059 8.68526C7.42586 8.88052 7.74244 8.88052 7.9377 8.68526C8.13296 8.49 8.13296 8.17341 7.9377 7.97815L5.70792 5.74837L7.9377 3.51859C8.13296 3.32333 8.13296 3.00675 7.9377 2.81149C7.74244 2.61622 7.42586 2.61622 7.23059 2.81149L5.00081 5.04127L2.77103 2.81149Z" fill="#B3B3B3"/>
</svg>
