<svg width="14" height="14" viewBox="0 0 14 14" fill="none" xmlns="http://www.w3.org/2000/svg">
<path d="M9.8 2.15561C8.49789 1.4135 7 1.2035 5.54428 1.59561C4.62006 1.84773 3.79428 2.30984 3.12214 2.9535L1.79214 2.1835L2.26792 3.97564L2.38003 4.33987L2.46424 4.66198L2.78636 4.57776L3.16424 4.47987L4.9421 4.00409L4.04633 3.48621C4.55055 3.06621 5.1521 2.74409 5.81061 2.57621C7.00061 2.25409 8.23275 2.42198 9.29633 3.03832C10.9342 3.99043 11.8163 5.81046 11.5506 7.68618L12.5448 7.82618C12.8659 5.5299 11.802 3.30404 9.8 2.15561Z" fill="#B3B3B3"/>
<path d="M11.62 9.66008L11.5358 9.33796L11.2137 9.42218L10.8494 9.52007L9.07159 9.99585L9.96736 10.5137C9.46314 10.948 8.86159 11.2558 8.20308 11.438C6.99995 11.7601 5.76778 11.5922 4.7042 10.9758C3.06634 10.0237 2.16992 8.20371 2.44992 6.32799L1.4557 6.18799C1.13413 8.47013 2.19781 10.6958 4.19998 11.8443C5.06787 12.3485 6.01998 12.6 6.9857 12.6C7.4757 12.6 7.9657 12.53 8.44142 12.4043C9.36564 12.1522 10.1914 11.69 10.8636 11.0464L12.1793 11.8164L11.7036 10.0242L11.62 9.66008Z" fill="#B3B3B3"/>
</svg>
