<svg width="18" height="18" viewBox="0 0 18 18" fill="none" xmlns="http://www.w3.org/2000/svg">
<path d="M16.3125 3.5627H14.5512C14.2967 2.51645 13.358 1.73462 12.2344 1.73462C11.1108 1.73462 10.1722 2.5165 9.91764 3.5627H1.6875C1.37671 3.5627 1.125 3.81441 1.125 4.1252C1.125 4.43599 1.37671 4.6877 1.6875 4.6877H9.91764C10.1722 5.73395 11.1108 6.51578 12.2344 6.51578C13.358 6.51578 14.2967 5.7339 14.5512 4.6877H16.3125C16.6233 4.6877 16.875 4.43599 16.875 4.1252C16.875 3.81441 16.6233 3.5627 16.3125 3.5627ZM12.2345 5.39078C11.5363 5.39078 10.9688 4.82337 10.9688 4.12516C10.9688 3.42696 11.5363 2.85955 12.2345 2.85955C12.9327 2.85955 13.5001 3.42696 13.5001 4.12516C13.5001 4.82266 12.9327 5.39078 12.2345 5.39078Z" fill="#B3B3B3"/>
<path d="M16.3125 8.43745H8.0824C7.82786 7.3912 6.88919 6.60938 5.76562 6.60938C4.64204 6.60938 3.70336 7.39126 3.44884 8.43745H1.6875C1.37671 8.43745 1.125 8.68917 1.125 8.99995C1.125 9.31074 1.37671 9.56245 1.6875 9.56245H3.44884C3.70337 10.6087 4.64204 11.3905 5.76562 11.3905C6.88919 11.3905 7.82788 10.6087 8.0824 9.56245H16.3125C16.6233 9.56245 16.875 9.31074 16.875 8.99995C16.875 8.68917 16.6233 8.43745 16.3125 8.43745ZM5.76562 10.2655C5.06741 10.2655 4.5 9.69812 4.5 8.99992C4.5 8.30172 5.06741 7.7343 5.76562 7.7343C6.46382 7.7343 7.03123 8.30172 7.03123 8.99992C7.03123 9.69812 6.46382 10.2655 5.76562 10.2655Z" fill="#B3B3B3"/>
<path d="M16.3125 13.3122H14.5512C14.2967 12.266 13.358 11.4841 12.2344 11.4841C11.1108 11.4841 10.1722 12.266 9.91764 13.3122H1.6875C1.37671 13.3122 1.125 13.5639 1.125 13.8747C1.125 14.1855 1.37671 14.4372 1.6875 14.4372H9.91764C10.1722 15.4835 11.1108 16.2653 12.2344 16.2653C13.358 16.2653 14.2967 15.4834 14.5512 14.4372H16.3125C16.6233 14.4372 16.875 14.1855 16.875 13.8747C16.875 13.5639 16.6233 13.3122 16.3125 13.3122ZM12.2345 15.1403C11.5363 15.1403 10.9688 14.5729 10.9688 13.8747C10.9688 13.1765 11.5363 12.6091 12.2345 12.6091C12.9327 12.6091 13.5001 13.1765 13.5001 13.8747C13.5001 14.5729 12.9327 15.1403 12.2345 15.1403Z" fill="#B3B3B3"/>
</svg>
