<svg width="12" height="12" viewBox="0 0 12 12" fill="none" xmlns="http://www.w3.org/2000/svg">
<path fill-rule="evenodd" clip-rule="evenodd" d="M6.00012 0.672119C8.94252 0.672119 11.3279 3.0576 11.3279 5.99988C11.3279 8.94216 8.9424 11.3276 6.00012 11.3276C3.05784 11.3276 0.672363 8.94216 0.672363 5.99988C0.672363 3.0576 3.05784 0.672119 6.00012 0.672119ZM7.31076 3.49164C6.8603 3.49164 6.49139 3.86101 6.49139 4.31101C6.49139 5.0282 7.36749 5.4107 7.88963 4.88992L7.89057 4.89085C8.21073 4.57069 8.21073 4.05179 7.89057 3.73163L7.88963 3.73257C7.7401 3.5835 7.5353 3.49164 7.31076 3.49164ZM7.31076 4.30961V4.31008C7.3103 4.31054 7.3103 4.31148 7.31076 4.31148H7.30936V4.31195L7.31076 4.31336C7.3103 4.31383 7.31076 4.31383 7.31076 4.31336V4.31148H7.30936V4.31101L7.31076 4.30961C7.3103 4.30961 7.3103 4.30914 7.31076 4.30961ZM7.31076 4.31008C7.31123 4.30961 7.31123 4.30914 7.31076 4.30961V4.31008ZM4.68948 3.49164C4.23902 3.49164 3.86964 3.86101 3.86964 4.31101C3.86964 5.0282 4.74574 5.4107 5.26788 4.88992L5.26882 4.89085C5.58898 4.57069 5.58898 4.05179 5.26882 3.73163L5.26788 3.73257C5.11929 3.5835 4.91448 3.49164 4.68948 3.49164ZM4.68948 4.30961V4.31008C4.68901 4.31055 4.68901 4.31148 4.68948 4.31148H4.68808V4.31195L4.68948 4.31336C4.68901 4.31383 4.68948 4.31383 4.68948 4.31336V4.31148H4.68808V4.31101L4.68948 4.30961ZM4.68948 4.31008C4.68995 4.30961 4.68995 4.30914 4.68948 4.30961V4.31008ZM8.36592 6.67492C8.2178 7.19617 7.90139 7.64711 7.47999 7.9654C6.10419 9.00321 4.10595 8.33149 3.63435 6.67492C3.48669 6.15648 2.69919 6.38055 2.84685 6.89898C3.04466 7.59367 3.46559 8.19462 4.02762 8.61834C5.8689 10.0072 8.52714 9.10162 9.1539 6.89898C9.3011 6.38055 8.51358 6.15648 8.36592 6.67492ZM9.18812 2.812C7.42748 1.05136 4.5728 1.05136 2.81216 2.812C1.05152 4.57264 1.05152 7.42732 2.81216 9.18796C4.5728 10.9486 7.42748 10.9486 9.18812 9.18796C10.9488 7.42732 10.9488 4.57264 9.18812 2.812Z" fill="#757575"/>
</svg>
