<svg width=".75rem" height=".75rem" viewBox="0 0 12 12" fill="none" xmlns="http://www.w3.org/2000/svg">
<path d="M2.00016 1.5C1.72406 1.5 1.5 1.72406 1.5 2.00016C1.5 2.27626 1.72406 2.49985 2.00016 2.49985H9.99984C10.2759 2.49985 10.5 2.27626 10.5 2.00016C10.5 1.72406 10.2759 1.5 9.99984 1.5H2.00016Z" fill="#757575" fill-opacity="0.5"/>
<path d="M5.49976 7.50016C5.49976 7.22406 5.72382 7 5.99992 7H9.99976C10.2759 7 10.4999 7.22406 10.4999 7.50016C10.4999 7.77626 10.2759 8.00032 9.99976 8.00032H5.99992C5.72382 8.00032 5.49976 7.77626 5.49976 7.50016Z" fill="#757575" fill-opacity="0.5"/>
<path d="M1.5 9.99969C1.5 9.7236 1.72406 9.5 2.00016 9.5H9.99984C10.2759 9.5 10.5 9.7236 10.5 9.99969C10.5 10.2758 10.2759 10.4999 9.99984 10.4999H2.00016C1.72406 10.4999 1.5 10.2758 1.5 9.99969Z" fill="#757575" fill-opacity="0.5"/>
<path d="M5.49976 4.50016C5.49976 4.22406 5.72382 4 5.99992 4H9.99976C10.2759 4 10.4999 4.22406 10.4999 4.50016C10.4999 4.77626 10.2759 5.00032 9.99976 5.00032H5.99992C5.72382 5.00032 5.49976 4.77626 5.49976 4.50016Z" fill="#757575" fill-opacity="0.5"/>
<path d="M4.03919 6.38364C4.27872 6.18395 4.27872 5.81551 4.03919 5.61583L2.32031 4.18327C1.99453 3.91187 1.5 4.14343 1.5 4.56718V7.43218C1.5 7.85592 1.99453 8.08748 2.32031 7.81608L4.03919 6.38364Z" fill="#757575" fill-opacity="0.5"/>
</svg>
