<svg width="14" height="14" viewBox="0 0 14 14" fill="none" xmlns="http://www.w3.org/2000/svg">
<path fill-rule="evenodd" clip-rule="evenodd" d="M7.4375 12.8334C7.67484 12.8334 7.88868 12.6896 7.97782 12.4692L9.72614 8.16645H11.0835C12.0498 8.16645 12.8335 7.38331 12.8335 6.41645V2.91644C12.8335 1.95012 12.0498 1.16644 11.0835 1.16644H3.89042C3.0444 1.16644 2.31976 1.77129 2.16828 2.60368L1.42617 6.68721C1.23094 7.76127 2.05617 8.74997 3.14775 8.74997H4.66647V10.5071L4.66702 10.5169C4.66702 10.5241 4.66702 10.5334 4.66756 10.5437C4.66866 10.5651 4.6703 10.5935 4.67303 10.6269C4.67905 10.6941 4.69053 10.7855 4.71295 10.8926C4.75725 11.1048 4.84639 11.3925 5.02905 11.684C5.41623 12.3041 6.15729 12.8334 7.4375 12.8334ZM9.91648 2.33343V6.99991H11.0835C11.4056 6.99991 11.6665 6.7385 11.6665 6.41639V2.91639C11.6665 2.59428 11.4056 2.33342 11.0835 2.33342L9.91648 2.33343ZM8.75 2.33343H3.89046C3.60828 2.33343 3.36655 2.53468 3.31624 2.81249L2.57413 6.89546C2.50905 7.25366 2.78413 7.58343 3.1478 7.58343H4.66652C5.31129 7.58343 5.83355 8.1057 5.83355 8.74991V10.4956C5.83355 10.4994 5.8341 10.5092 5.83519 10.5235C5.83793 10.5519 5.84339 10.5973 5.85543 10.6542C5.87949 10.7701 5.92707 10.9199 6.01785 11.066C6.15293 11.2814 6.42583 11.5614 7.05418 11.6435L8.75 7.46922L8.75 2.33343Z" fill="#B3B3B3"/>
</svg>
