<svg width="12" height="12" viewBox="0 0 12 12" fill="none" xmlns="http://www.w3.org/2000/svg">
<path d="M1.42478 10.1099C1.68728 10.1981 1.96994 10.0551 2.05712 9.79354L2.78322 7.6153H6.21582L6.94192 9.79354C7.01223 10.0031 7.20629 10.1357 7.41629 10.1357C7.46832 10.1357 7.52176 10.1278 7.57426 10.1104C7.83582 10.0223 7.97785 9.73964 7.88972 9.47761L4.97312 0.727446C4.90609 0.523074 4.71532 0.385254 4.49969 0.385254C4.28406 0.385254 4.09328 0.522126 4.02485 0.726978L1.10825 9.47714C1.02106 9.73917 1.16262 10.0218 1.42465 10.1099L1.42478 10.1099ZM4.49978 2.46654L5.88254 6.61494H3.11738L4.49978 2.46654Z" fill="#757575"/>
<path d="M7.8541 8.45851C7.8541 10.1151 9.49426 10.1151 10.1115 10.1151H10.75C11.0261 10.1151 11.2501 9.89151 11.2501 9.61495V6.13543L11.2529 5.82886C11.2628 5.21856 11.2712 4.64152 10.8859 4.24966C10.6586 4.0181 10.3328 3.90186 9.91701 3.90186C9.35638 3.90186 9.10561 4.13155 8.86279 4.35232L8.75919 4.44654C8.55106 4.62748 8.53092 4.94435 8.71326 5.15201C8.89466 5.35873 9.21013 5.37935 9.41826 5.19795L9.53685 5.09107C9.72904 4.91577 9.74451 4.9017 9.91701 4.9017C10.0712 4.9017 10.1509 4.92889 10.1734 4.95233C10.2545 5.03436 10.2583 5.38217 10.2554 5.68592C8.7756 5.95967 7.8541 7.41847 7.8541 8.45851ZM10.1115 9.11428C9.02873 9.11428 8.85394 8.92069 8.85394 8.45756C8.85394 7.91146 9.37284 6.9782 10.2499 6.70964V9.1148L10.1115 9.11428Z" fill="#757575"/>
</svg>
