<svg width=".75rem" height=".75rem" viewBox="0 0 12 12" fill="none" xmlns="http://www.w3.org/2000/svg">
<path fill-rule="evenodd" clip-rule="evenodd" d="M2.49978 1H6.24978C7.7685 1 8.99994 2.23144 8.99994 3.75016C8.99994 4.4261 8.7562 5.04532 8.3512 5.52388C9.32573 5.98419 9.99976 6.97612 9.99976 8.125C9.99976 9.71308 8.71252 11.0003 7.12492 11.0003H2.49976L2.49978 1ZM3.74994 2.25016H6.24978C7.07852 2.25016 7.74978 2.92188 7.74978 3.75016C7.74978 4.57844 7.07852 5.25016 6.24978 5.25016H3.74994V2.25016ZM3.74994 6.50032V9.75016H7.12494C8.0226 9.75016 8.7501 9.02266 8.7501 8.125C8.7501 7.22781 8.0226 6.50032 7.12494 6.50032H3.74994Z" fill="#757575" fill-opacity="0.5"/>
</svg>
