<svg width=".75rem" height=".75rem" viewBox="0 0 12 12" fill="none" xmlns="http://www.w3.org/2000/svg">
<path d="M5.00008 1C3.61912 1 2.49976 2.11937 2.49976 3.50032C2.49976 4.06282 2.68585 4.58219 2.99992 5.00032H5.00008C4.17133 5.00032 3.50008 4.3286 3.50008 3.50032C3.50008 2.67158 4.17133 2.00032 5.00008 2.00032H8.49976C8.77585 2.00032 8.99992 1.77626 8.99992 1.50016C8.99992 1.22406 8.77585 1 8.49976 1H5.00008Z" fill="#757575" fill-opacity="0.5"/>
<path d="M11.0003 5.5H0.999936C0.72384 5.5 0.500244 5.72406 0.500244 6.00016C0.500244 6.27626 0.72384 6.50032 0.999936 6.50032H11.0003C11.2764 6.50032 11.4999 6.27626 11.4999 6.00016C11.4999 5.72406 11.2764 5.5 11.0003 5.5Z" fill="#757575" fill-opacity="0.5"/>
<path d="M9.50008 8.5C9.50008 9.88096 8.3807 11.0003 6.99976 11.0003H2.99992C2.72382 11.0003 2.49976 10.7763 2.49976 10.5002C2.49976 10.2241 2.72382 10 2.99992 10H6.99976C7.8285 10 8.49976 9.32874 8.49976 8.5C8.49976 7.67172 7.8285 7 6.99976 7H8.99992C9.31398 7.41813 9.50008 7.9375 9.50008 8.5Z" fill="#757575" fill-opacity="0.5"/>
</svg>
