<svg width=".75rem" height=".75rem" viewBox="0 0 12 12" fill="none" xmlns="http://www.w3.org/2000/svg">
<path fill-rule="evenodd" clip-rule="evenodd" d="M2.99992 1C3.27601 1 3.50008 1.22406 3.50008 1.50016V6.0274C3.50008 7.38868 4.61477 8.5 5.99992 8.5C7.38506 8.5 8.49976 7.3886 8.49976 6.0274V1.50016C8.49976 1.22406 8.72382 1 8.99992 1C9.27601 1 9.50008 1.22406 9.50008 1.50016V6.0274C9.50008 7.9498 7.9288 9.50032 5.99992 9.50032C4.07104 9.50032 2.49976 7.94968 2.49976 6.0274V1.50016C2.49976 1.22406 2.72382 1 2.99992 1Z" fill="#757575" fill-opacity="0.5"/>
<path fill-rule="evenodd" clip-rule="evenodd" d="M1.5 10.5002C1.5 10.2241 1.72406 10 2.00016 10H9.99984C10.2759 10 10.5 10.2241 10.5 10.5002C10.5 10.7763 10.2759 11.0003 9.99984 11.0003H2.00016C1.72406 11.0003 1.5 10.7763 1.5 10.5002Z" fill="#757575" fill-opacity="0.5"/>
</svg>
