<svg width="12" height="13" viewBox="0 0 12 13" fill="none" xmlns="http://www.w3.org/2000/svg">
<path fill-rule="evenodd" clip-rule="evenodd" d="M4.48768 2.19113H7.29594L7.05067 1.54316H4.73303L4.48768 2.19113ZM4.15049 4.29856C4.12814 3.78719 4.9051 3.75317 4.92744 4.26505L5.16917 9.72505C5.19151 10.2359 4.41455 10.2704 4.39221 9.75856L4.15049 4.29856ZM6.85605 4.26505C6.87839 3.75368 7.65534 3.78719 7.633 4.29856L7.39128 9.75856C7.36894 10.2704 6.59199 10.2359 6.61432 9.72505L6.85605 4.26505ZM1.98872 2.19116H3.65584L4.09053 1.04146C4.13826 0.880483 4.28756 0.763184 4.46428 0.763184H7.31973V0.764199C7.47715 0.764199 7.62493 0.860176 7.68383 1.01607L8.12817 2.19116H10.8835C11.3969 2.19116 11.3969 2.97116 10.8835 2.97116H10.1589L9.60688 11.3541C9.56626 11.9741 9.05998 12.4631 8.43993 12.4631H3.34354C2.7235 12.4631 2.21771 11.9741 2.17658 11.3541L1.62408 2.97116H0.89994C0.386544 2.97116 0.386544 2.19116 0.89994 2.19116L1.98872 2.19116ZM9.37896 2.97116H2.40472L2.95417 11.3053C2.96789 11.5156 3.13292 11.6831 3.34367 11.6831H8.44058C8.65081 11.6831 8.81635 11.5156 8.83007 11.3053L9.37896 2.97116Z" fill="#B3B3B3"/>
</svg>
