<svg width="18" height="18" viewBox="0 0 18 18" fill="none" xmlns="http://www.w3.org/2000/svg">
<path d="M9 1.6875C6.48702 1.69031 4.15062 2.98195 2.8125 5.10894V3.93754C2.8125 3.62675 2.56079 3.37504 2.25 3.37504C1.93921 3.37504 1.6875 3.62675 1.6875 3.93754V6.75004C1.6875 6.8991 1.74656 7.04254 1.85203 7.148C1.9575 7.25347 2.10093 7.31253 2.24999 7.31253H5.06249C5.37328 7.31253 5.62499 7.06082 5.62499 6.75003C5.62499 6.43924 5.37328 6.18753 5.06249 6.18753H3.49453C4.16391 4.87549 5.27977 3.84465 6.64165 3.28215C8.0029 2.71895 9.52093 2.66059 10.9215 3.11691C12.3228 3.57325 13.5146 4.51402 14.2839 5.77119C15.0524 7.02768 15.3477 8.51763 15.1164 9.97311C14.8844 11.4279 14.1412 12.7525 13.0198 13.7081C11.899 14.6644 10.4731 15.1889 9.00001 15.1875C8.82634 15.1875 8.6576 15.1833 8.48885 15.1671C8.17946 15.139 7.90525 15.3668 7.87713 15.6762C7.84902 15.9855 8.07683 16.2598 8.38619 16.2879C8.58869 16.3062 8.79119 16.3125 9.00003 16.3125C11.6129 16.3125 14.0267 14.9189 15.3331 12.6563C16.6389 10.3937 16.6389 7.60643 15.3331 5.34383C14.0267 3.08123 11.6129 1.6875 9 1.6875Z" fill="#B3B3B3"/>
<path d="M9 4.5C8.68921 4.5 8.4375 4.75171 8.4375 5.0625V9.5625C8.4375 9.71156 8.49656 9.855 8.60203 9.96046C8.7075 10.0659 8.85094 10.125 8.99999 10.125H13.5C13.8108 10.125 14.0625 9.87328 14.0625 9.56249C14.0625 9.25171 13.8108 8.99999 13.5 8.99999H9.56249V5.06249C9.56249 4.91343 9.50343 4.76999 9.39796 4.66453C9.29249 4.55906 9.14906 4.5 9 4.5Z" fill="#B3B3B3"/>
<path d="M6.75 9.5625H2.25C1.93921 9.5625 1.6875 9.81421 1.6875 10.125C1.6875 10.4358 1.93921 10.6875 2.25 10.6875H6.75C7.06079 10.6875 7.3125 10.4358 7.3125 10.125C7.3125 9.81421 7.06079 9.5625 6.75 9.5625Z" fill="#B3B3B3"/>
<path d="M6.75 15.1875H2.25C1.93921 15.1875 1.6875 15.4392 1.6875 15.75C1.6875 16.0608 1.93921 16.3125 2.25 16.3125H6.75C7.06079 16.3125 7.3125 16.0608 7.3125 15.75C7.3125 15.4392 7.06079 15.1875 6.75 15.1875Z" fill="#B3B3B3"/>
<path d="M6.75 12.375H2.25C1.93921 12.375 1.6875 12.6267 1.6875 12.9375C1.6875 13.2483 1.93921 13.5 2.25 13.5H6.75C7.06079 13.5 7.3125 13.2483 7.3125 12.9375C7.3125 12.6267 7.06079 12.375 6.75 12.375Z" fill="#B3B3B3"/>
</svg>
