<svg width="50" height="51" viewBox="0 0 50 51" fill="none" xmlns="http://www.w3.org/2000/svg">
<path d="M21.0255 30.3927C22.086 31.4533 23.5001 32.0373 25.0001 32.0373C26.5001 32.0373 27.9141 31.4513 28.9747 30.3927L33.9141 25.4533C34.6934 24.674 34.6934 23.4084 33.9141 22.6232C33.1348 21.8439 31.8633 21.8439 31.084 22.6232L26.9981 26.7091V12.0781C26.9981 10.9727 26.1035 10.0781 24.9981 10.0781C23.8926 10.0781 22.9981 10.9727 22.9981 12.0781V26.7091L18.9121 22.6232C18.1328 21.8439 16.8613 21.8439 16.082 22.6232C15.3027 23.4025 15.3027 24.6681 16.082 25.4533L21.0215 30.3927H21.0255Z" fill="#EEEEEE"/>
<path d="M23.5 36.043C22.3946 36.043 21.5 36.9375 21.5 38.043C21.5 39.1484 22.3946 40.043 23.5 40.043H26.5C27.6055 40.043 28.5 39.1484 28.5 38.043C28.5 36.9375 27.6055 36.043 26.5 36.043H23.5Z" fill="#EEEEEE"/>
<path d="M38 36.043H35C33.8946 36.043 33 36.9375 33 38.043C33 39.1484 33.8946 40.043 35 40.043H38C39.1055 40.043 40 39.1484 40 38.043C40 36.9375 39.1055 36.043 38 36.043Z" fill="#EEEEEE"/>
<path d="M12 40.043H15C16.1055 40.043 17 39.1484 17 38.043C17 36.9375 16.1055 36.043 15 36.043H12C10.8946 36.043 10 36.9375 10 38.043C10 39.1484 10.8946 40.043 12 40.043Z" fill="#EEEEEE"/>
</svg>
