<svg width=".875rem" height=".875rem" viewBox="0 0 14 14" fill="none" xmlns="http://www.w3.org/2000/svg">
<path fill-rule="evenodd" clip-rule="evenodd" d="M13.1943 12.373C13.7329 12.9116 12.9145 13.7294 12.3759 13.1915L8.75825 9.57313V11.5679C8.75825 12.3294 7.6009 12.3294 7.6009 11.5679L7.60161 8.17669C7.60161 7.85748 7.86106 7.59802 8.18027 7.59802H11.5722C12.3337 7.59802 12.3337 8.75537 11.5722 8.75537L9.57671 8.75467L13.1943 12.373ZM5.24121 2.42445C5.24121 1.66296 6.39856 1.66296 6.39856 2.42445V5.81637C6.39856 6.13558 6.1391 6.39503 5.81989 6.39503L2.42797 6.39433C1.66648 6.39433 1.66648 5.23698 2.42797 5.23698H4.42273L0.805092 1.61934C0.266496 1.08074 1.08494 0.263004 1.62353 0.800899L5.24117 4.41854L5.24121 2.42445Z" fill="#B3B3B3"/>
</svg>
