<svg width="14" height="14" viewBox="0 0 14 14" fill="none" xmlns="http://www.w3.org/2000/svg">
<path d="M11.9292 3.83579L9.7718 1.28625C9.56016 1.02977 9.2468 0.879382 8.9143 0.875H2.92762C2.2413 0.914922 1.71519 1.50063 1.74965 2.1875V11.8125C1.71519 12.4994 2.24128 13.0851 2.92762 13.125H11.0717C11.758 13.0851 12.2841 12.4994 12.2497 11.8125V4.7376C12.2524 4.40892 12.1392 4.08954 11.9292 3.83579ZM8.74966 12.2501H5.24966V9.18757C5.24966 8.94585 5.44544 8.75007 5.68716 8.75007H8.31216C8.4281 8.75007 8.53966 8.79601 8.62169 8.87804C8.70372 8.96007 8.74966 9.07163 8.74966 9.18757L8.74966 12.2501ZM11.3747 11.8126C11.3747 12.0455 11.2336 12.2501 11.0717 12.2501H9.62465V9.18757C9.62465 8.46296 9.03676 7.87507 8.31215 7.87507H5.68715C4.96254 7.87507 4.37465 8.46296 4.37465 9.18757V12.2501H2.92761C2.76574 12.2501 2.62463 12.0455 2.62463 11.8126V2.18757C2.62463 1.9546 2.76573 1.75007 2.92761 1.75007H8.91429C8.98921 1.75445 9.05866 1.79163 9.10351 1.85179L11.2609 4.40133C11.3369 4.49703 11.3768 4.6157 11.3747 4.73765V11.8126ZM9.62466 4.81257C9.62466 4.92851 9.57872 5.04007 9.49669 5.1221C9.41466 5.20413 9.3031 5.25007 9.18717 5.25007H4.81217C4.57044 5.25007 4.37467 5.05429 4.37467 4.81257C4.37467 4.57084 4.57044 4.37506 4.81217 4.37506H9.18717C9.3031 4.37506 9.41467 4.421 9.49669 4.50303C9.57872 4.58506 9.62466 4.69664 9.62466 4.81257Z" fill="#B3B3B3"/>
</svg>
