<svg width=".75rem" height=".75rem" viewBox="0 0 12 12" fill="none" xmlns="http://www.w3.org/2000/svg">
<path d="M4.49995 1.50016C4.49995 1.22406 4.72401 1 5.00011 1H8.99995C9.27604 1 9.50011 1.22406 9.50011 1.50016C9.50011 1.77626 9.27604 2.00032 8.99995 2.00032H7.50043C7.49996 2.03782 7.49574 2.07626 7.48683 2.11469L5.63151 10H6.99975C7.27585 10 7.49991 10.2241 7.49991 10.5002C7.49991 10.7763 7.27585 11.0003 6.99975 11.0003H5.01039H4.99024H2.99992C2.72382 11.0003 2.49976 10.7763 2.49976 10.5002C2.49976 10.2241 2.72382 10 2.99992 10H4.60396L6.48652 2.00033H5.00008C4.72398 2.00033 4.49995 1.77626 4.49995 1.50016Z" fill="#757575" fill-opacity="0.5"/>
</svg>
