<svg width="12" height="12" viewBox="0 0 12 12" fill="none" xmlns="http://www.w3.org/2000/svg">
<path d="M5.28884 7.69906C4.87587 7.95078 4.74743 8.48796 5.0015 8.9005C5.25743 9.31628 5.79697 9.44613 6.20942 9.1944L6.48082 8.938L9.65614 5.90332L5.53066 7.5988L5.28884 7.69906Z" fill="#B3B3B3"/>
<path d="M10.5515 4.77008C10.3022 4.78461 10.0945 4.94774 10.0139 5.17321C9.037 4.05383 7.59935 3.3456 5.99999 3.3456C3.06143 3.3456 0.670788 5.73624 0.670788 8.67481C0.670788 8.8595 0.520788 9.0095 0.334692 9.0095C0.15 9.0095 0 8.8595 0 8.67481C0 5.3664 2.6916 2.6748 6 2.6748C7.8192 2.6748 9.45137 3.4885 10.5515 4.77008Z" fill="#B3B3B3"/>
<path d="M11.9994 8.6755C11.9994 8.86019 11.8494 9.01019 11.6633 9.01019C11.4786 9.01019 11.3286 8.86019 11.3286 8.6755C11.3286 7.69628 11.0633 6.77938 10.6016 5.99098C10.8538 5.98723 11.067 5.83161 11.1561 5.61035C11.6909 6.50848 11.9994 7.55614 11.9994 8.6755Z" fill="#B3B3B3"/>
<path d="M10.9914 5.37937C10.9914 5.91563 10.1875 5.91563 10.1875 5.37937C10.1875 4.8436 10.9914 4.8436 10.9914 5.37937Z" fill="#B3B3B3"/>
</svg>
