<svg width="12" height="12" viewBox="0 0 12 12" fill="none" xmlns="http://www.w3.org/2000/svg">
<g clip-path="url(#clip0_1011_10910)">
<path fill-rule="evenodd" clip-rule="evenodd" d="M11.1734 5.17343C11.4341 5.10499 11.5892 4.83827 11.5208 4.57812C11.4519 4.31656 11.1875 4.1614 10.918 4.23265C10.6578 4.30109 10.5022 4.56781 10.5706 4.82796C10.6395 5.08952 10.9044 5.24468 11.1734 5.17343ZM11.2114 6.54035C11.4805 6.54175 11.6998 6.32425 11.7008 6.05519C11.7022 5.78472 11.4866 5.56628 11.2077 5.56581C10.9386 5.56441 10.7192 5.78191 10.7178 6.05098C10.7164 6.32144 10.9325 6.53988 11.2109 6.54035H11.2114ZM10.8941 7.87067C11.1538 7.94145 11.4219 7.78864 11.4927 7.52848C11.5639 7.26785 11.4125 7.00114 11.143 6.92801C10.8833 6.85723 10.6152 7.01004 10.5444 7.2702C10.4731 7.5313 10.625 7.79801 10.8941 7.87067ZM10.243 9.07343C10.4755 9.20889 10.7741 9.13061 10.9095 8.89812C11.0459 8.66468 10.9686 8.36796 10.7272 8.22734C10.4947 8.09188 10.1961 8.17016 10.0606 8.40265C9.92423 8.63609 10.002 8.93328 10.243 9.07343ZM9.25625 9.4217C9.44188 9.23796 9.79766 9.18124 9.98985 9.37483C10.1863 9.57264 10.1731 9.89046 9.98094 10.0808C8.95391 11.083 7.5495 11.7003 6.00078 11.7003C2.8527 11.7003 0.300781 9.14837 0.300781 6.00028C0.300781 2.85172 2.8527 0.299805 6.00078 0.299805C6.27031 0.299805 6.48922 0.518709 6.48922 0.788241C6.48922 1.05777 6.27031 1.27668 6.00078 1.27668C3.39222 1.27668 1.2777 3.3912 1.2777 5.99928C1.2777 8.60736 3.39222 10.7219 6.00078 10.7219C7.2627 10.7219 8.40918 10.2269 9.25626 9.4206L9.25625 9.4217ZM10.7835 3.8633C11.0169 3.72971 11.0985 3.43205 10.9649 3.19814C10.8308 2.9633 10.5351 2.88174 10.2927 3.02048C10.0593 3.15408 9.9777 3.45174 10.1113 3.68564C10.2454 3.92048 10.5416 4.00205 10.7835 3.8633ZM10.0672 2.69846C10.2585 2.50909 10.2599 2.20019 10.0705 2.0094C9.88021 1.81721 9.57365 1.81534 9.37583 2.01174C9.18457 2.20111 9.18317 2.51002 9.37255 2.70081C9.56285 2.893 9.86989 2.89487 10.0672 2.69846ZM9.07396 1.75862C9.20943 1.52612 9.13115 1.22753 8.89865 1.09206C8.66522 0.955655 8.36849 1.033 8.22788 1.2744C8.09194 1.5069 8.17069 1.8055 8.40318 1.94096C8.63662 2.07737 8.93381 1.99956 9.07396 1.75862ZM7.8712 1.10753C7.94198 0.847835 7.78917 0.579719 7.52901 0.508931C7.26791 0.437681 7.00167 0.589555 6.92854 0.858155C6.85776 1.11785 7.01057 1.38596 7.27073 1.45675C7.53183 1.528 7.79854 1.37613 7.8712 1.10753ZM8.45667 7.76513L6.48927 5.79773V2.81645C6.48927 2.54645 6.27036 2.32801 6.00083 2.32801C5.7313 2.32801 5.5124 2.54692 5.5124 2.81645V6.00017C5.5124 6.12486 5.56021 6.25001 5.65536 6.34564L7.76568 8.45596C7.95646 8.64673 8.26584 8.64673 8.45662 8.45596C8.6474 8.26518 8.64744 7.9559 8.45667 7.76513Z" fill="#B3B3B3"/>
</g>
<defs>
<clipPath id="clip0_1011_10910">
<rect width="12" height="12" fill="white" transform="translate(0 -0.000976562)"/>
</clipPath>
</defs>
</svg>
