<svg width="12" height="12" viewBox="0 0 12 12" fill="none" xmlns="http://www.w3.org/2000/svg">
<path fill-rule="evenodd" clip-rule="evenodd" d="M8.59441 6.01135C9.93783 6.01135 11.027 4.92217 11.027 3.57878C11.027 2.23484 9.93779 1.14622 8.59441 1.14622C7.25102 1.14622 6.16184 2.23479 6.16184 3.57878C6.16184 4.92221 7.25102 6.01135 8.59441 6.01135ZM12 3.57878C12 5.45919 10.4753 6.98438 8.59441 6.98438C6.714 6.98438 5.18881 5.45919 5.18881 3.57878C5.18881 1.69786 6.714 0.173189 8.59441 0.173189C10.4753 0.173189 12 1.69786 12 3.57878Z" fill="#B3B3B3"/>
<path fill-rule="evenodd" clip-rule="evenodd" d="M0.144079 11.389C-0.0456619 11.1993 -0.0456619 10.8909 0.144079 10.7012L5.33394 5.51132C5.52368 5.32158 5.83202 5.32158 6.02176 5.51132C6.2115 5.70167 6.2115 6.00939 6.02176 6.19973L0.83254 11.3889C0.64219 11.5787 0.334468 11.5787 0.144131 11.3889L0.144079 11.389Z" fill="#B3B3B3"/>
<path fill-rule="evenodd" clip-rule="evenodd" d="M3.47944 7.77512C3.66918 7.58538 3.97751 7.58538 4.16725 7.77512L5.46441 9.07288C5.65476 9.26262 5.65476 9.57095 5.46441 9.76069L3.51836 11.7067C3.32862 11.8965 3.02029 11.8965 2.83055 11.7067L1.53339 10.4096C1.34304 10.2192 1.34304 9.91151 1.53339 9.72117C1.72313 9.53143 2.03146 9.53143 2.2212 9.72117L3.17477 10.6747L4.43241 9.4165L3.47945 8.46354C3.2891 8.27319 3.2891 7.96547 3.47945 7.77513L3.47944 7.77512Z" fill="#B3B3B3"/>
</svg>
