<svg width="12" height="12" viewBox="0 0 12 12" fill="none" xmlns="http://www.w3.org/2000/svg">
<path fill-rule="evenodd" clip-rule="evenodd" d="M5.99789 0.547852C4.62732 0.547852 3.38942 0.777729 2.46375 1.17062C2.00088 1.36705 1.61554 1.60171 1.33015 1.88911C1.0447 2.1765 0.855469 2.53309 0.855469 2.92059V9.43216C0.855469 9.55327 0.874439 9.67106 0.908498 9.78462L0.909145 9.7866L0.909791 9.78785C1.09807 10.4355 1.74937 10.903 2.60087 11.2384C2.61195 11.2428 2.62333 11.2471 2.6345 11.2514C2.63989 11.2535 2.64528 11.2558 2.65067 11.2579C2.70072 11.2771 2.75164 11.2959 2.80329 11.3141C2.82394 11.3214 2.84511 11.3283 2.86602 11.3355C2.91318 11.3517 2.96117 11.3673 3.00958 11.3827C3.02135 11.3864 3.0333 11.3906 3.04515 11.3943C3.08434 11.4066 3.12353 11.4182 3.1635 11.4299C3.20537 11.4421 3.24757 11.4543 3.29025 11.4661C3.31745 11.4736 3.34483 11.4809 3.37238 11.4881C3.40407 11.4965 3.43597 11.5047 3.46809 11.5127C3.50767 11.5226 3.54751 11.5323 3.58773 11.5418C3.61351 11.5478 3.6393 11.554 3.66534 11.5599C3.70897 11.5696 3.75294 11.5791 3.79726 11.5883C3.82921 11.595 3.86133 11.6014 3.89362 11.6077C3.92595 11.6141 3.95859 11.6204 3.99127 11.6265C4.03451 11.6345 4.07806 11.6422 4.1219 11.6498C4.14975 11.6545 4.17786 11.6588 4.20597 11.6634C4.24784 11.6701 4.2897 11.6771 4.33208 11.6834C4.36506 11.6883 4.39839 11.6931 4.43167 11.6976C4.47763 11.704 4.52355 11.7106 4.57007 11.7164C4.5949 11.7195 4.62012 11.7219 4.64508 11.7248C4.69764 11.731 4.75032 11.7374 4.80352 11.7429C4.82387 11.745 4.84452 11.7467 4.86495 11.7487C4.91816 11.7539 4.97149 11.7591 5.02533 11.7636C5.05831 11.7664 5.09173 11.7689 5.12492 11.7714C5.17605 11.7751 5.22719 11.7786 5.27883 11.7817C5.28504 11.7821 5.29138 11.7821 5.29759 11.7824C5.44421 11.791 5.59274 11.7974 5.74316 11.8005C5.82775 11.8023 5.91229 11.8031 5.99796 11.8031C6.08363 11.8031 6.16881 11.8023 6.25341 11.8005C6.30652 11.7994 6.35916 11.7971 6.41184 11.7954C6.43487 11.7946 6.4581 11.7943 6.48104 11.7934C6.56054 11.7902 6.63935 11.7865 6.71773 11.7817H6.72105C6.77162 11.7787 6.82163 11.7751 6.87172 11.7714C6.90492 11.7689 6.93833 11.7664 6.97131 11.7636C7.17649 11.7467 7.37714 11.7244 7.57274 11.697C7.6015 11.693 7.63021 11.6884 7.65875 11.6841C7.70419 11.6773 7.74907 11.67 7.79391 11.6627C7.82085 11.6583 7.84801 11.6543 7.87474 11.6498C7.91859 11.6423 7.96214 11.6346 8.00538 11.6265C8.0381 11.6204 8.07069 11.6141 8.10303 11.6077C8.13532 11.6014 8.16744 11.595 8.19939 11.5883C8.24371 11.5791 8.28768 11.5697 8.33131 11.5599C8.35735 11.554 8.38313 11.5479 8.40892 11.5418C8.44914 11.5324 8.48898 11.5226 8.52856 11.5127C8.56068 11.5047 8.59258 11.4965 8.62427 11.4881C8.65182 11.4809 8.67919 11.4736 8.7064 11.4661C8.74908 11.4543 8.79129 11.4422 8.83315 11.4299C8.93498 11.4 9.03392 11.3686 9.13063 11.3355C9.15154 11.3284 9.1727 11.3215 9.19335 11.3141C9.26221 11.2898 9.32976 11.2645 9.39577 11.2385C10.3047 10.8806 10.9881 10.3721 11.1212 9.65468H11.1198C11.1334 9.5819 11.1412 9.50779 11.1412 9.43222V2.92064C11.1412 2.85886 11.1354 2.79833 11.1263 2.73828C11.1249 2.70926 11.1197 2.68059 11.1108 2.65295C11.0474 2.3694 10.8873 2.10882 10.6691 1.88912C10.3836 1.60173 9.99566 1.36706 9.53284 1.17064C8.60716 0.777744 7.36835 0.547852 5.99789 0.547852ZM5.99789 1.21007C7.29297 1.21007 8.45968 1.43382 9.27344 1.77916C9.68029 1.95183 9.99735 2.15446 10.1976 2.35601C10.3359 2.49531 10.4172 2.62707 10.4543 2.75373C10.3547 3.08087 9.915 3.48156 9.15382 3.78132C8.3473 4.09893 7.22986 4.30191 5.99791 4.30191C4.76597 4.30191 3.65179 4.09893 2.84532 3.78132C2.08411 3.48156 1.64207 3.08086 1.54219 2.75373C1.57926 2.62706 1.66058 2.49531 1.79893 2.35601C1.99915 2.15446 2.3162 1.95183 2.72305 1.77916C3.53677 1.43382 4.70282 1.21007 5.99789 1.21007ZM1.51822 3.79945C1.8094 4.0345 2.18056 4.23152 2.60078 4.397C3.50973 4.75493 4.69416 4.96415 5.99785 4.96415C7.30153 4.96415 8.48668 4.75493 9.39557 4.397C9.81511 4.23179 10.1866 4.03528 10.4781 3.80075V4.94285C10.4744 4.95303 10.4712 4.96337 10.4684 4.97389C10.406 5.31056 9.96022 5.74402 9.15372 6.06164C8.34721 6.37925 7.22976 6.58223 5.99781 6.58223C4.76587 6.58223 3.65169 6.37925 2.84522 6.06164C2.03871 5.74403 1.59032 5.31056 1.52785 4.97389C1.52514 4.96337 1.5219 4.95303 1.51815 4.94285L1.51822 3.79945ZM2.44946 4.76884C2.36211 4.76919 2.27838 4.80402 2.2166 4.86581C2.15486 4.92759 2.11998 5.01127 2.11964 5.09866C2.11929 5.18648 2.15387 5.27082 2.21569 5.33315C2.27756 5.39549 2.36164 5.43072 2.44946 5.43106C2.53771 5.43141 2.62247 5.39649 2.6849 5.33406C2.74728 5.27167 2.7822 5.18691 2.78186 5.09866C2.78151 5.01084 2.74629 4.92677 2.68395 4.8649C2.62165 4.80303 2.53728 4.7685 2.44946 4.76884ZM1.51822 6.0797C1.8094 6.31471 2.18056 6.51238 2.60078 6.67789C3.50973 7.03582 4.69416 7.2444 5.99785 7.2444C7.30153 7.2444 8.48668 7.03582 9.39557 6.67789C9.81511 6.51268 10.1866 6.31553 10.4781 6.08099V7.18361C10.4682 7.20641 10.4608 7.23025 10.4562 7.25474C10.3937 7.59146 9.94535 8.02423 9.13878 8.34184C8.33227 8.65945 7.21802 8.86243 5.98619 8.86243C4.78658 8.86243 3.69746 8.67001 2.89629 8.36642C2.09511 8.06281 1.62119 7.64044 1.52793 7.30843C1.52499 7.30032 1.52176 7.29235 1.51823 7.2845L1.51822 6.0797ZM2.44946 7.02129C2.36211 7.02163 2.27838 7.05647 2.2166 7.11825C2.15486 7.18003 2.11998 7.26371 2.11964 7.35111C2.11929 7.43893 2.15387 7.52326 2.21569 7.5856C2.27756 7.64794 2.36164 7.68316 2.44946 7.68351C2.53771 7.68385 2.62247 7.64893 2.6849 7.5865C2.74728 7.52412 2.7822 7.43936 2.78186 7.35111C2.78151 7.26328 2.74629 7.17922 2.68395 7.11734C2.62165 7.05547 2.53728 7.02094 2.44946 7.02129ZM10.4782 8.35024V9.43216C10.4782 9.46622 10.4752 9.5005 10.4691 9.53499C10.4125 9.8401 10.0405 10.2222 9.37103 10.5277C9.33873 10.5423 9.30687 10.5568 9.27337 10.571C9.2679 10.5734 9.26212 10.5751 9.25656 10.5775C9.21086 10.5967 9.16473 10.616 9.11688 10.6344C9.0961 10.6424 9.07467 10.6498 9.0535 10.6577C9.03056 10.6662 9.00771 10.6752 8.9843 10.6836C8.95382 10.6945 8.92244 10.7047 8.89118 10.7152C8.85427 10.7278 8.81784 10.7401 8.77995 10.7521C8.76477 10.7569 8.74938 10.761 8.73403 10.7657C8.70295 10.7753 8.67199 10.7855 8.64026 10.7948C8.60991 10.8037 8.57874 10.8121 8.54779 10.8207C8.51424 10.8299 8.48044 10.8395 8.44625 10.8485C8.41551 10.8565 8.38443 10.864 8.35313 10.8717C8.3308 10.8773 8.30846 10.8831 8.28587 10.8886C8.24604 10.8981 8.2056 10.9073 8.16494 10.9164C8.13502 10.923 8.10471 10.9293 8.0744 10.9358C8.04134 10.9428 8.00835 10.9498 7.97481 10.9565C7.94226 10.963 7.9095 10.9691 7.87652 10.9752C7.84353 10.9813 7.81034 10.9875 7.77693 10.9933C7.74782 10.9985 7.71838 11.0033 7.68897 11.0082C7.57304 11.0273 7.45517 11.0446 7.33459 11.0599C7.31829 11.062 7.30182 11.0638 7.28544 11.0658C7.23642 11.0718 7.18706 11.078 7.13735 11.0833C7.11294 11.0859 7.0882 11.0879 7.06362 11.0904C6.93687 11.103 6.80826 11.1139 6.67755 11.1221C6.67177 11.1224 6.66587 11.1224 6.66009 11.1227C6.51794 11.1313 6.37426 11.1378 6.22809 11.1408C6.152 11.1425 6.07491 11.1434 5.99787 11.1434C5.92105 11.1434 5.84482 11.1424 5.76894 11.1408C5.61689 11.1377 5.46651 11.1313 5.31885 11.1221H5.31617C5.09625 11.1083 4.88207 11.0875 4.674 11.0613H4.67133C3.97342 10.9731 3.34899 10.8186 2.84515 10.6201C2.0386 10.3025 1.59025 9.8717 1.52778 9.53498C1.52158 9.50049 1.51808 9.46622 1.51808 9.43216V8.36963C1.82371 8.61365 2.21561 8.81568 2.6614 8.98464C3.56035 9.32528 4.71659 9.52528 5.98606 9.52528C7.28974 9.52528 8.47423 9.31605 9.38312 8.95812C9.80917 8.79033 10.1852 8.58965 10.4782 8.35024ZM2.44946 9.39077C2.36211 9.39112 2.27838 9.42596 2.2166 9.48774C2.15486 9.54952 2.11998 9.6332 2.11964 9.72059C2.11929 9.80842 2.15387 9.89275 2.21569 9.95509C2.27756 10.0174 2.36164 10.0527 2.44946 10.053C2.53771 10.0533 2.62247 10.0184 2.6849 9.95599C2.74728 9.89361 2.7822 9.80885 2.78186 9.72059C2.78151 9.63277 2.74629 9.54871 2.68395 9.48683C2.62165 9.42496 2.53728 9.39043 2.44946 9.39077Z" fill="#B3B3B3"/>
</svg>
