<svg width="12" height="12" viewBox="0 0 12 12" fill="none" xmlns="http://www.w3.org/2000/svg">
<g clip-path="url(#clip0_1011_10917)">
<path d="M6.00186 -0.000976562C5.70148 -0.000976562 5.46094 0.239567 5.46094 0.539946V2.40199C5.46094 2.70237 5.70148 2.94292 6.00186 2.94292C6.30224 2.94292 6.54278 2.70237 6.54278 2.40199V0.539946C6.54278 0.239567 6.30224 -0.000976562 6.00186 -0.000976562Z" fill="#B3B3B3"/>
<path d="M2.53213 1.7581C2.32211 1.54808 1.97655 1.54808 1.75127 1.7581C1.54124 1.96813 1.54124 2.31369 1.75127 2.53897L3.07306 3.86076C3.28308 4.07078 3.62864 4.07078 3.85392 3.86076C4.06395 3.65073 4.06395 3.30518 3.85392 3.07989L2.53213 1.7581Z" fill="#B3B3B3"/>
<path d="M2.9508 6.0087C2.9508 5.70832 2.71026 5.46777 2.40988 5.46777H0.53311C0.232731 5.46777 -0.0078125 5.70832 -0.0078125 6.0087C-0.0078125 6.30907 0.232731 6.54962 0.53311 6.54962H2.39516C2.69554 6.54962 2.9508 6.30907 2.9508 6.0087Z" fill="#B3B3B3"/>
<path d="M3.07306 8.17021L1.75127 9.492C1.54124 9.70203 1.54124 10.0476 1.75127 10.2729C1.96129 10.4829 2.30685 10.4829 2.53213 10.2729L3.85392 8.95108C4.06395 8.74105 4.06395 8.3955 3.85392 8.17021C3.62864 7.96019 3.28308 7.96019 3.07306 8.17021Z" fill="#B3B3B3"/>
<path d="M6.00186 9.05575C5.70148 9.05575 5.46094 9.2963 5.46094 9.59668V11.4587C5.46094 11.7591 5.70148 11.9996 6.00186 11.9996C6.30224 11.9996 6.54278 11.7591 6.54278 11.4587V9.61125C6.54278 9.31087 6.30224 9.05575 6.00186 9.05575Z" fill="#B3B3B3"/>
<path d="M8.93057 8.17021C8.72055 7.96019 8.37499 7.96019 8.14971 8.17021C7.93968 8.38024 7.93968 8.72579 8.14971 8.95108L9.47149 10.2729C9.68152 10.4829 10.0271 10.4829 10.2524 10.2729C10.4624 10.0628 10.4624 9.71729 10.2524 9.492L8.93057 8.17021Z" fill="#B3B3B3"/>
<path d="M11.4655 5.46777H9.60342C9.30304 5.46777 9.0625 5.70832 9.0625 6.0087C9.0625 6.30907 9.30304 6.54962 9.60342 6.54962H11.4655C11.7659 6.54962 12.0064 6.30907 12.0064 6.0087C12.0064 5.70832 11.7659 5.46777 11.4655 5.46777Z" fill="#B3B3B3"/>
</g>
<defs>
<clipPath id="clip0_1011_10917">
<rect width="12" height="12" fill="white" transform="translate(0 -0.000976562)"/>
</clipPath>
</defs>
</svg>
