<svg width="12" height="12" viewBox="0 0 12 12" fill="none" xmlns="http://www.w3.org/2000/svg">
<g clip-path="url(#clip0_1011_10939)">
<path fill-rule="evenodd" clip-rule="evenodd" d="M4.21553 -0.000779263C4.47935 0.00597081 4.70774 0.184295 4.77862 0.43855L7.25262 9.34552L8.4311 5.80949C8.51323 5.56424 8.74218 5.39885 9.00036 5.39885H11.4006C11.732 5.39885 12.0008 5.66773 12.0008 5.99906C12.0008 6.33038 11.732 6.59927 11.4006 6.59927H9.43295L7.76956 11.5887C7.6863 11.8391 7.44891 12.0056 7.1851 11.9988C6.92128 11.9921 6.69289 11.8137 6.62259 11.5595L4.14801 2.65252L2.96953 6.18855C2.88797 6.43381 2.65846 6.5992 2.40027 6.5992H0.600211C0.268886 6.5992 0 6.33031 0 5.99899C0 5.66766 0.268886 5.39878 0.600211 5.39878H1.96769L3.63109 0.409303C3.71434 0.15898 3.95172 -0.00751868 4.21553 -0.000779263Z" fill="#B3B3B3"/>
</g>
<defs>
<clipPath id="clip0_1011_10939">
<rect width="12" height="12" fill="white" transform="translate(0 -0.000976562)"/>
</clipPath>
</defs>
</svg>
